<svg width="81" height="81" viewBox="0 0 81 81" fill="none" xmlns="http://www.w3.org/2000/svg">
<g clip-path="url(#clip0)">
<path d="M49.7998 24.3307L43.9251 23.4917L38.8917 28.5251L47.2808 33.5609L52.3165 41.9499L57.3499 36.9165L56.511 31.0418L62.3833 25.1695L75.8081 38.5943L81 33.5611L72.4528 15.1027L79.6088 8.03419C81.4648 6.17815 81.4631 3.17482 79.6088 1.32052C77.847 -0.441228 74.657 -0.439014 72.8975 1.32052L65.7393 8.38904L47.2808 0L42.2474 5.03339L55.6722 18.4582L49.7998 24.3307Z" fill="white"/>
<path d="M10.3456 40.0544L16.5435 46.2523L21.5628 43.2424L19.9977 38.5482C19.3072 36.4787 19.6199 34.159 20.8319 32.3468L26.4007 23.9902C27.1261 22.9009 26.8318 21.4247 25.7426 20.6994L14.4288 13.1562C6.91924 19.1718 1.59049 27.9544 0.331665 37.9687H5.15401C7.05419 37.9687 9.00135 38.7103 10.3456 40.0544Z" fill="white"/>
<path d="M25.0019 78.6127L28.5074 73.3548C29.0312 72.5692 29.6963 71.9041 30.4818 71.3804L39.9809 64.7305C40.5093 64.3782 40.8662 63.843 40.9914 63.2219C41.1165 62.6008 40.9914 61.9659 40.6391 61.4397L35.1885 53.2638C34.7482 52.6011 34.0089 52.207 33.2141 52.207H29.6824C26.7955 52.207 24.2767 50.44 23.1736 47.8105L18.9828 50.3238C19.0839 50.8044 19.1427 51.2969 19.1427 51.7992V75.8625C21.0021 76.9422 22.9608 77.8573 25.0019 78.6127Z" fill="white"/>
<path d="M31.4064 21.2786C31.7795 23.1418 31.4041 25.0397 30.3496 26.6225L24.7785 34.9815C24.3754 35.5863 24.2711 36.358 24.5005 37.0464L27.432 45.8387C27.7541 46.8097 28.6603 47.4609 29.6823 47.4609H33.2141C35.5986 47.4609 37.8141 48.6451 39.1373 50.6311L44.5879 58.8071C45.6423 60.3899 46.0177 62.2879 45.6447 64.151C45.2717 66.0165 44.1964 67.783 42.6135 68.8375L33.1144 75.3292C32.8526 75.503 32.63 75.7255 32.4563 75.9873L29.7549 80.039C32.4526 80.6494 35.2471 81 38.1269 81C58.2437 81 74.7115 64.9454 75.9729 45.1415L75.8083 45.3057L62.3835 31.8809L61.5446 32.7199L62.3835 38.5946L51.3758 49.6047L43.8209 37.0211L31.2373 29.4662L42.2475 18.4585L48.1222 19.2974L48.9611 18.4585L35.5363 5.03367L35.7005 4.86914C29.4692 5.26607 23.6439 7.1729 18.5811 10.2207L28.3754 16.7507C29.9579 17.8048 31.0332 19.4131 31.4064 21.2786Z" fill="white"/>
<path d="M14.3965 72.6233V51.799C14.3965 51.1757 14.1438 50.5638 13.7012 50.1213L6.83169 43.41C6.38919 42.9675 5.77742 42.7148 5.15394 42.7148H0C0 54.6734 5.72869 65.6584 14.3965 72.6233Z" fill="white"/>
</g>
<defs>
<clipPath id="clip0">
<rect width="81" height="81" fill="white"/>
</clipPath>
</defs>
</svg>
