<svg width="81" height="81" viewBox="0 0 81 81" fill="none" xmlns="http://www.w3.org/2000/svg">
<g clip-path="url(#clip0)">
<path d="M78.139 12.9263C75.9062 9.06804 72.6973 5.83216 68.8597 3.56859C64.9018 1.23398 60.369 0 55.7507 0C51.1326 0 46.5993 1.23398 42.6415 3.56859C38.8038 5.83232 35.595 9.0682 33.3623 12.9263C32.9065 13.714 32.9411 14.6926 33.4515 15.446L43.6573 30.5106C43.7165 30.5063 43.7755 30.5016 43.8359 30.5016H51.1872L49.6866 25.9996C49.2723 24.7563 49.9442 23.4123 51.1875 22.9978C52.431 22.5837 53.7747 23.2555 54.1892 24.4987L55.7507 29.1833L57.3122 24.4987C57.7265 23.2554 59.0703 22.5833 60.3139 22.9978C61.5572 23.4123 62.2291 24.7561 61.8148 25.9996L60.3142 30.5016H67.6656C67.7259 30.5016 67.7849 30.5061 67.8442 30.5106L78.0499 15.446C78.5601 14.6926 78.5947 13.714 78.139 12.9263V12.9263Z" fill="white"/>
<path d="M45.7522 76.0852C45.7522 78.7952 47.9569 80.9999 50.6669 80.9999H60.8343C63.5443 80.9999 65.7491 78.7952 65.7491 76.0852V35.2476H45.7522V76.0852Z" fill="white"/>
<path d="M5.0835 30.1641H27.6222V53.3777H5.0835V30.1641Z" fill="white"/>
<path d="M2.54163 76.0855C2.54163 78.7955 4.74634 81.0002 7.45636 81.0002H25.2492C27.9592 81.0002 30.1639 78.7955 30.1639 76.0855V58.124H2.54163V76.0855Z" fill="white"/>
<path d="M25.0803 4.91485C25.0803 2.55477 23.3962 0.775146 21.1632 0.775146C20.5986 0.775146 20.0275 0.889053 19.466 1.11386L11.4769 4.3094C9.28103 5.18775 7.62512 7.63357 7.62512 9.99855V25.4181H25.0803V4.91485Z" fill="white"/>
</g>
<defs>
<clipPath id="clip0">
<rect width="81" height="81" fill="white"/>
</clipPath>
</defs>
</svg>
