<svg width="81" height="81" viewBox="0 0 81 81" fill="none" xmlns="http://www.w3.org/2000/svg">
<path d="M12.6562 36.7031C12.6562 38.7965 14.3598 40.5 16.4531 40.5H16.4569C16.4569 40.4734 16.4531 40.4481 16.4531 40.4203V32.9062C14.3598 32.9062 12.6562 34.6098 12.6562 36.7031Z" fill="white"/>
<path d="M43.2932 59.8047L42.1504 59.5352L38.5282 69.1919L30.375 62.398L22.2218 69.1919L18.5996 59.5352L17.4568 59.8047C9.41372 61.6956 3.79688 68.7894 3.79688 77.0514V77.2033H56.9531V77.0514C56.9531 68.7894 51.3363 61.6956 43.2932 59.8047Z" fill="white"/>
<path d="M41.7656 29.5055C41.7656 27.1932 39.9001 25.3125 37.6068 25.3125C33.0113 25.3125 30.4762 26.8945 27.5425 28.7259C25.2733 30.1421 22.7256 31.733 18.9844 32.6544V40.4215C18.9844 46.7459 24.095 51.8906 30.375 51.8906C36.655 51.8906 41.7656 46.7459 41.7656 40.4203V29.5055ZM22.7812 36.7031C22.7812 36.0045 23.3483 35.4375 24.0469 35.4375C24.7455 35.4375 25.3125 36.0045 25.3125 36.7031C25.3125 37.4018 24.7455 37.9688 24.0469 37.9688C23.3483 37.9688 22.7812 37.4018 22.7812 36.7031ZM36.8196 42.7743C35.602 45.2107 33.1543 46.7231 30.432 46.7231C27.7096 46.7231 25.2619 45.2107 24.0443 42.7743L23.8532 42.3908L26.1174 41.2581L26.3085 41.6416C27.0945 43.2148 28.6753 44.1918 30.432 44.1918C32.1886 44.1918 33.7694 43.216 34.5554 41.6416L34.7465 41.2581L37.0107 42.3908L36.8196 42.7743ZM36.7031 37.9688C36.0045 37.9688 35.4375 37.4018 35.4375 36.7031C35.4375 36.0045 36.0045 35.4375 36.7031 35.4375C37.4017 35.4375 37.9688 36.0045 37.9688 36.7031C37.9688 37.4018 37.4017 37.9688 36.7031 37.9688Z" fill="white"/>
<path d="M35.2869 56.3267L34.7617 53.6992C33.3809 54.1612 31.909 54.4219 30.375 54.4219C28.8411 54.4219 27.3692 54.1612 25.9884 53.6992L25.4631 56.3267L30.375 59.2743L35.2869 56.3267Z" fill="white"/>
<path d="M44.3703 32.9062H44.2969V40.4215C44.2969 40.4481 44.2931 40.4734 44.2931 40.5013H44.3703C46.4636 40.5013 48.1672 38.7977 48.1672 36.7044C48.1672 34.611 46.4636 32.9062 44.3703 32.9062V32.9062Z" fill="white"/>
<path d="M21.0853 58.9502L23.3407 64.9645L28.1956 60.9183L23.8368 58.3022L21.0853 58.9502Z" fill="white"/>
<path d="M12.9068 31.466C13.9193 30.7788 15.1394 30.375 16.4531 30.375H17.5745C21.3688 29.5916 23.8279 28.0615 26.2022 26.5794C29.1929 24.7114 32.2861 22.7813 37.6068 22.7813C41.2961 22.7813 44.2969 25.7973 44.2969 29.5056V30.375H44.3703C45.6713 30.375 46.8813 30.7712 47.8875 31.447C48.395 29.8916 49.3594 26.6073 49.3594 24.1026C49.3594 21.7966 47.4495 19.9197 45.1018 19.9197H44.4741L42.6554 17.5277C40.3355 14.4775 36.6424 12.655 32.7721 12.655C31.3255 12.655 29.9042 12.9018 28.5474 13.3891L16.4367 17.734C13.4194 18.8174 11.3906 21.6688 11.3906 24.8316C11.3906 25.4467 11.4678 26.0631 11.6184 26.6592L12.9068 31.466Z" fill="white"/>
<path d="M39.6647 58.9502L36.9133 58.3022L32.5544 60.9183L37.4094 64.9645L39.6647 58.9502Z" fill="white"/>
<path d="M73.4063 44.7183L68.5969 51.1312L70.6219 52.6499L72.1407 50.6249V74.6718H74.6719V50.6249L76.1907 52.6499L78.2157 51.1312L73.4063 44.7183Z" fill="white"/>
<path d="M58.2188 53.1562C58.2188 53.8549 57.6505 54.4219 56.9532 54.4219H53.1563L55.1813 52.9031L53.6626 50.8781L47.2496 55.6875L53.6613 60.4969L55.18 58.4719L53.1563 56.9531H56.9532C59.0465 56.9531 60.7501 55.2496 60.7501 53.1562V49.3594H58.2188V53.1562Z" fill="white"/>
<path d="M67.0781 72.1406H69.6094V74.6719H67.0781V72.1406Z" fill="white"/>
<path d="M67.0781 67.0781H69.6094V69.6094H67.0781V67.0781Z" fill="white"/>
<path d="M67.0781 62.0156H69.6094V64.5469H67.0781V62.0156Z" fill="white"/>
<path d="M58.2188 39.2344H60.75V41.7656H58.2188V39.2344Z" fill="white"/>
<path d="M58.2188 44.2969H60.75V46.8281H58.2188V44.2969Z" fill="white"/>
<path d="M60.1184 25.0417L60.5854 25.3125H64.5468V18.7515C63.0774 18.2276 62.0156 16.8354 62.0156 15.1875C62.0156 13.0942 63.7191 11.3907 65.8124 11.3907C67.9058 11.3907 69.6093 13.0942 69.6093 15.1875C69.6093 16.8354 68.5474 18.2276 67.0781 18.7515V25.3125H71.0395L71.5065 25.0417C75.0199 23.0066 77.2031 19.23 77.2031 15.1875C77.2031 11.9526 75.8197 8.85815 73.4074 6.699C71.2913 4.80436 68.6386 3.79565 65.8276 3.79565C65.391 3.79565 64.9518 3.82097 64.5088 3.87033C59.216 4.45505 54.9977 8.73286 54.4788 14.0409C54.0371 18.5541 56.1975 22.7699 60.1184 25.0417V25.0417Z" fill="white"/>
<path d="M65.8125 16.4531C66.5115 16.4531 67.0781 15.8865 67.0781 15.1875C67.0781 14.4885 66.5115 13.9219 65.8125 13.9219C65.1135 13.9219 64.5469 14.4885 64.5469 15.1875C64.5469 15.8865 65.1135 16.4531 65.8125 16.4531Z" fill="white"/>
<path d="M70.875 32.9062V27.8438H60.75V32.9062C60.75 33.6049 61.3183 34.1719 62.0156 34.1719H69.6094C70.3067 34.1719 70.875 33.6049 70.875 32.9062Z" fill="white"/>
</svg>
